<svg xmlns="http://www.w3.org/2000/svg" viewBox="0 0 200 200" fill="none">
  <defs>
    <linearGradient id="gold" x1="0" y1="0" x2="0" y2="1">
      <stop offset="0%" stop-color="#fef3c7"/>
      <stop offset="100%" stop-color="#ca8a04"/>
    </linearGradient>
  </defs>
  <rect x="40" y="80" width="120" height="90" rx="6" fill="url(#gold)" stroke="#a16207" stroke-width="2"/>
  <rect x="40" y="80" width="120" height="22" rx="6" fill="#eab308"/>
  <pattern id="dots" x="0" y="0" width="20" height="20" patternUnits="userSpaceOnUse">
    <circle cx="10" cy="10" r="1.5" fill="#a16207" opacity="0.3"/>
  </pattern>
  <rect x="40" y="102" width="120" height="68" fill="url(#dots)"/>
  <path d="M100 80 C75 55, 65 50, 72 45 C82 40, 93 58, 100 80" fill="#fbbf24" stroke="#a16207" stroke-width="1.5"/>
  <path d="M100 80 C125 55, 135 50, 128 45 C118 40, 107 58, 100 80" fill="#fbbf24" stroke="#a16207" stroke-width="1.5"/>
  <path d="M100 80 C80 100, 70 105, 77 110 C87 115, 93 97, 100 80" fill="#fbbf24" stroke="#a16207" stroke-width="1.5" opacity="0.7"/>
  <path d="M100 80 C120 100, 130 105, 123 110 C113 115, 107 97, 100 80" fill="#fbbf24" stroke="#a16207" stroke-width="1.5" opacity="0.7"/>
  <circle cx="100" cy="80" r="4" fill="#a16207"/>
</svg>
